<?xml version="1.0"?>
<svg id="Layer_1" data-name="Layer 1" xmlns="http://www.w3.org/2000/svg" viewBox="0 0 200 200">
  <defs></defs>
  <path fill="#C5CBFF" d="M200,36.55v126.87c0,20.14-16.41,36.55-36.55,36.55H36.58C16.43,199.98.02,183.57.02,163.42V36.55C.02,16.33,16.43,0,36.58,0h126.87c20.14,0,36.55,16.33,36.55,36.55Z"></path>
  <path fill="#384BCF" d="M123.07,97.55c14.81-2.6,23.71-11.79,24.26-25.73.32-7.82-2.1-14.72-6.98-19.95-5.43-5.81-13.49-9.15-22.69-9.41-6.03-.18-25.45-.24-32.42-.24h0s-.65,0-.65,0h-32.07v110.69h32.72s31.09,0,31.09,0h31.13v-.79c0-5.15.02-10.3.04-15.45v-1.44c.12-20.83-8.92-34.48-24.43-37.68ZM54.11,151.33c0-7.92.09-14.52.28-20.72.28-10.06,3.9-18.84,10.2-24.72,5.07-4.74,11.62-7.31,19.07-7.51v52.96h-29.55ZM85.23,98.37c.3,0,.6-.01.9,0,3.2.13,7.96.79,12.68,3.19-1.48.94-2.88,2-4.19,3.21-4.56,4.26-7.74,9.96-9.4,16.51v-22.91ZM95.02,98.3c3.56,0,7.42,0,10.78.01-1.89.6-3.69,1.37-5.4,2.31-1.68-.95-3.47-1.72-5.38-2.33ZM85.38,43.81c7.11,0,26.27.07,32.23.24,8.78.24,16.45,3.4,21.58,8.9,4.59,4.91,6.85,11.41,6.55,18.8-.62,15.67-12.5,24.99-31.81,24.99h-.31c-4.7-.02-22.32-.04-28.24-.04v-52.9ZM83.65,43.81v52.98c-7.82.23-14.78,2.92-20.15,7.93-4.56,4.26-7.74,9.96-9.4,16.51V43.81h29.55ZM85.23,151.33c0-7.83.09-14.41.28-20.67.28-10.06,3.9-18.84,10.2-24.73,1.44-1.35,3.01-2.51,4.67-3.51,7.52,4.48,14.5,13.75,14.4,32.75-.02,5.38-.04,10.79-.04,16.16h-29.51ZM145.91,136.66c-.02,4.9-.04,9.78-.04,14.67h-29.54c0-5.37.02-10.77.04-16.15.08-15.82-5.1-27.49-14.39-33.61,4.49-2.29,9.65-3.39,15.28-3.16,8.67.34,28.82,4.61,28.65,36.81v1.44Z"></path>
</svg>